<svg width="22" height="11" viewBox="0 0 22 11" fill="none" xmlns="http://www.w3.org/2000/svg">
<path d="M3.24581 9.5838C3.33206 9.88568 3.60796 10.0938 3.92188 10.0938H18.0781C18.3921 10.0938 18.668 9.88568 18.7542 9.5838L21.421 0.25H0.579041L3.24581 9.5838ZM14.2205 6.46258L14.9236 2.24383C14.9875 1.86077 15.3497 1.60183 15.7328 1.66586C16.1159 1.7297 16.3746 2.09195 16.3108 2.47502L15.6076 6.69377C15.5503 7.03769 15.2524 7.28144 14.9149 7.28144C14.8765 7.28144 14.8376 7.2783 14.7985 7.27174C14.4154 7.20789 14.1567 6.8456 14.2205 6.46258ZM10.2969 2.35938C10.2969 1.97106 10.6117 1.65625 11 1.65625C11.3883 1.65625 11.7031 1.97106 11.7031 2.35938V6.57813C11.7031 6.96644 11.3883 7.28125 11 7.28125C10.6117 7.28125 10.2969 6.96644 10.2969 6.57813V2.35938ZM6.3141 1.66586C6.69721 1.60206 7.05942 1.86077 7.12326 2.24383L7.82639 6.46258C7.89023 6.8456 7.63148 7.20789 7.24842 7.27174C7.20932 7.27825 7.17037 7.28144 7.13198 7.28144C6.79443 7.28144 6.49659 7.03774 6.43926 6.69377L5.73613 2.47502C5.67229 2.09195 5.93104 1.72966 6.3141 1.66586Z" fill="#CCCCCC"/>
</svg>
