<svg width="17" height="15" viewBox="0 0 17 15" fill="none" xmlns="http://www.w3.org/2000/svg">
<path d="M16.3795 14.3662L14.4848 9.82948C14.468 9.78932 14.4382 9.75476 14.3995 9.73037C14.3607 9.70598 14.3147 9.69291 14.2676 9.6929H10.6817C10.7036 9.66027 10.7254 9.62861 10.7473 9.59586C12.1271 7.50946 12.8215 5.68435 12.8115 4.17196C12.8117 3.12755 12.3576 2.12584 11.5492 1.38721C10.7407 0.648574 9.64411 0.233514 8.5006 0.233337C7.35708 0.233161 6.26033 0.647881 5.4516 1.38626C4.64288 2.12465 4.18844 3.12621 4.18824 4.17062C4.17828 5.68435 4.87263 7.5097 6.25241 9.59586C6.27433 9.62897 6.29611 9.66063 6.31802 9.6929H2.73209C2.68501 9.69291 2.63904 9.70598 2.60027 9.73037C2.5615 9.75476 2.53174 9.78932 2.51494 9.82948L0.620501 14.3662C0.607002 14.3983 0.602275 14.433 0.606729 14.4672C0.611182 14.5014 0.624681 14.534 0.646061 14.5624C0.66744 14.5907 0.696056 14.6139 0.729436 14.6299C0.762816 14.6459 0.799957 14.6542 0.837649 14.6542H16.1624C16.2 14.6542 16.2372 14.6459 16.2706 14.6299C16.3039 14.6139 16.3326 14.5907 16.3539 14.5624C16.3753 14.534 16.3888 14.5014 16.3933 14.4672C16.3977 14.433 16.393 14.3983 16.3795 14.3662ZM4.65322 4.17098C4.65331 3.7096 4.75289 3.25275 4.94629 2.82651C5.13969 2.40028 5.42312 2.01301 5.78038 1.68682C6.13765 1.36063 6.56177 1.1019 7.02851 0.925407C7.49526 0.748916 7.9955 0.658118 8.50066 0.658198C9.00583 0.658278 9.50603 0.749233 9.97271 0.925871C10.4394 1.10251 10.8634 1.36137 11.2206 1.68768C11.5777 2.01398 11.861 2.40134 12.0542 2.82763C12.2475 3.25393 12.3469 3.71081 12.3468 4.1722C12.3667 7.18753 9.28014 10.9065 8.5 11.7983C7.71986 10.9069 4.63316 7.18886 4.65322 4.17098ZM8.32296 12.2714C8.34478 12.2948 8.37191 12.3137 8.40248 12.3266C8.43305 12.3395 8.46632 12.3462 8.5 12.3462C8.53368 12.3462 8.56695 12.3395 8.59752 12.3266C8.62809 12.3137 8.65522 12.2948 8.67704 12.2714C9.29413 11.5848 9.86623 10.8655 10.3903 10.1172H14.1073L14.4048 10.8299L7.1412 13.1893L4.55215 10.1168H6.60941C7.13358 10.8653 7.70576 11.5847 8.32296 12.2714ZM7.13309 13.6421H7.13442L11.4677 12.235L13.1484 14.2296H5.32578L7.13309 13.6421ZM2.89239 10.1168H3.96552L6.68047 13.3389L3.93882 14.2295H1.17499L2.89239 10.1168ZM13.7356 14.2296L11.9282 12.0847L14.5711 11.2263L15.8253 14.2296H13.7356Z" fill="#CCCCCC"/>
</svg>
