<svg width="24" height="20" viewBox="0 0 24 20" fill="none" xmlns="http://www.w3.org/2000/svg">
<path d="M23.2969 6.56854H20.8223L15.4084 0.387695C15.1659 0.110826 14.7234 0.0658299 14.4202 0.287428C14.1169 0.508982 14.0677 0.91309 14.3104 1.19004L19.0215 6.56854H4.97855L9.68967 1.19004C9.93225 0.91309 9.88308 0.50894 9.57989 0.287428C9.27661 0.0658299 8.83416 0.110783 8.59163 0.387695L3.1777 6.56854H0.703125C0.314812 6.56854 0 6.85607 0 7.21073V8.4951C0 8.84976 0.314812 9.13729 0.703125 9.13729H23.2969C23.6852 9.13729 24 8.84976 24 8.4951V7.21073C24 6.85607 23.6852 6.56854 23.2969 6.56854Z" fill="#CCCCCC"/>
<path d="M4.24576 18.9465C4.33201 19.2222 4.60792 19.4123 4.92184 19.4123H19.0782C19.3921 19.4123 19.668 19.2222 19.7542 18.9465L22.421 10.4217H1.57898L4.24576 18.9465ZM15.2205 16.0958L15.9236 12.2427C15.9875 11.8928 16.3497 11.6563 16.7328 11.7148C17.1159 11.7731 17.3746 12.104 17.3108 12.4538L16.6076 16.307C16.5503 16.6211 16.2524 16.8437 15.9149 16.8437C15.8765 16.8437 15.8376 16.8408 15.7985 16.8348C15.4154 16.7765 15.1567 16.4456 15.2205 16.0958ZM11.2969 12.3482C11.2969 11.9936 11.6117 11.706 12 11.706C12.3883 11.706 12.7031 11.9936 12.7031 12.3482V16.2013C12.7031 16.556 12.3883 16.8435 12 16.8435C11.6117 16.8435 11.2969 16.556 11.2969 16.2013V12.3482ZM7.31407 11.7148C7.69718 11.6565 8.05939 11.8928 8.12323 12.2427L8.82636 16.0958C8.8902 16.4456 8.63145 16.7765 8.24839 16.8348C8.20929 16.8408 8.17034 16.8437 8.13195 16.8437C7.7944 16.8437 7.49656 16.6211 7.43923 16.307L6.7361 12.4538C6.67225 12.104 6.93101 11.7731 7.31407 11.7148Z" fill="#CCCCCC"/>
</svg>
